<svg xmlns="http://www.w3.org/2000/svg" xmlns:xlink="http://www.w3.org/1999/xlink" width="500" zoomAndPan="magnify" viewBox="0 0 375 374.999991" height="500" preserveAspectRatio="xMidYMid meet" version="1.0"><defs><g/><clipPath id="0e7dff8409"><path d="M 10.359375 152.796875 L 356.109375 152.796875 L 356.109375 193.296875 L 10.359375 193.296875 Z M 10.359375 152.796875 " clip-rule="nonzero"/></clipPath></defs><rect x="-37.5" width="450" fill="#ffffff" y="-37.499999" height="449.999989" fill-opacity="1"/><rect x="-37.5" width="450" fill="#ffffff" y="-37.499999" height="449.999989" fill-opacity="1"/><rect x="-37.5" width="450" fill="#ffffff" y="-37.499999" height="449.999989" fill-opacity="1"/><g fill="#000000" fill-opacity="1"><g transform="translate(71.287569, 229.408437)"><g><path d="M 8.871094 0 L 86.132812 0 L 87.585938 -19.195312 L 86.132812 -19.515625 C 80.8125 -5.96875 72.261719 -2.097656 57.746094 -2.097656 L 30.808594 -2.097656 C 26.613281 -2.097656 24.355469 -4.355469 24.355469 -8.550781 L 24.355469 -59.035156 L 50.808594 -59.035156 C 67.585938 -59.035156 71.132812 -55.324219 72.421875 -49.359375 L 74.199219 -49.359375 L 74.199219 -70.8125 L 72.421875 -70.8125 C 71.132812 -64.84375 67.585938 -61.132812 50.808594 -61.132812 L 24.355469 -61.132812 L 24.355469 -110.8125 L 53.390625 -110.8125 C 67.90625 -110.8125 76.777344 -105.972656 81.777344 -93.394531 L 83.230469 -93.714844 L 81.296875 -112.910156 L 8.871094 -112.910156 L 8.871094 -111.136719 C 13.386719 -110.007812 15.324219 -107.265625 15.324219 -92.425781 L 15.324219 -20.484375 C 15.324219 -5.644531 13.386719 -2.902344 8.871094 -1.773438 Z M 8.871094 0 "/></g></g></g><g fill="#000000" fill-opacity="1"><g transform="translate(165.318535, 229.408437)"><g/></g></g><g fill="#000000" fill-opacity="1"><g transform="translate(200.801922, 229.408437)"><g><path d="M -1.9375 0 L 15.644531 0 L 15.644531 -1.773438 C 10 -2.902344 10 -8.871094 14.195312 -19.035156 L 23.871094 -43.066406 L 71.941406 -43.066406 L 81.941406 -18.871094 C 87.585938 -5.160156 87.746094 -2.902344 83.230469 -1.773438 L 83.230469 0 L 103.554688 0 L 103.554688 -1.773438 C 100.328125 -2.902344 96.941406 -5.160156 91.296875 -18.871094 L 52.101562 -114.039062 L 43.875 -110.492188 L 44.839844 -108.394531 C 45.96875 -106.136719 46.132812 -104.359375 45.164062 -101.941406 L 11.613281 -19.035156 C 5.96875 -5.160156 2.097656 -2.902344 -1.9375 -1.773438 Z M 24.839844 -45.324219 L 47.582031 -101.941406 L 70.972656 -45.324219 Z M 24.839844 -45.324219 "/></g></g></g><g clip-path="url(#0e7dff8409)"><path fill="#ffffff" d="M 10.382812 152.796875 L 356.089844 152.796875 L 356.089844 193.296875 L 10.382812 193.296875 L 10.382812 152.796875 " fill-opacity="1" fill-rule="nonzero"/></g><g fill="#000000" fill-opacity="1"><g transform="translate(85.055232, 183.329189)"><g><path d="M 17.175781 -9.273438 C 17.175781 -10.402344 16.371094 -11.207031 15.160156 -11.207031 C 12.984375 -11.207031 10.402344 -9.636719 8.183594 -7.378906 C 7.863281 -7.054688 6.691406 -5.804688 6.691406 -5.644531 C 6.691406 -5.5625 6.855469 -5.402344 6.894531 -5.402344 C 6.933594 -5.402344 6.976562 -5.484375 7.015625 -5.523438 C 7.015625 -5.523438 7.054688 -5.523438 7.054688 -5.441406 C 7.054688 -5.320312 6.933594 -4.878906 6.933594 -4.273438 C 6.933594 -2.175781 7.902344 0.0390625 10.121094 0 C 12.015625 -0.0390625 13.585938 -0.804688 15.601562 -2.660156 C 16.8125 -3.75 18.386719 -5.605469 18.386719 -5.765625 C 18.386719 -5.925781 18.304688 -6.007812 18.183594 -6.007812 C 18.023438 -6.007812 17.621094 -5.28125 16.046875 -3.667969 C 13.585938 -1.25 11.492188 -0.445312 10.402344 -0.484375 C 9.152344 -0.523438 8.707031 -1.046875 8.707031 -2.621094 C 8.707031 -3.0625 8.789062 -3.507812 8.871094 -3.953125 C 11.25 -4.433594 17.175781 -6.25 17.175781 -9.273438 Z M 15.160156 -10.726562 C 15.683594 -10.726562 15.964844 -10.484375 15.964844 -9.957031 C 15.964844 -7.054688 11.691406 -4.757812 9.03125 -4.433594 C 9.597656 -6.691406 13.023438 -10.726562 15.160156 -10.726562 Z M 15.160156 -10.726562 "/></g></g></g><g fill="#000000" fill-opacity="1"><g transform="translate(96.262845, 183.329189)"><g><path d="M 17.175781 -0.242188 C 18.265625 -1.894531 24.796875 -10.726562 27.09375 -10.726562 C 27.496094 -10.726562 27.617188 -10.523438 27.617188 -10.363281 C 27.617188 -8.871094 23.34375 -5.96875 23.34375 -2.582031 C 23.34375 -1.046875 23.867188 0 25.078125 0 C 26.207031 0 27.496094 -1.046875 29.511719 -3.144531 C 30.5625 -4.234375 31.8125 -5.5625 31.8125 -5.765625 C 31.8125 -5.925781 31.730469 -5.96875 31.609375 -5.96875 C 31.40625 -5.96875 31.570312 -5.925781 28.867188 -3.0625 C 27.375 -1.53125 25.925781 -0.484375 25.199219 -0.484375 C 24.753906 -0.484375 24.511719 -0.925781 24.554688 -1.371094 C 24.753906 -3.425781 28.667969 -6.53125 28.667969 -9.152344 C 28.667969 -10.605469 28.019531 -11.207031 27.253906 -11.207031 C 24.996094 -11.207031 20.964844 -5.847656 19.554688 -4.234375 L 19.472656 -4.3125 C 20.199219 -5.644531 21.449219 -7.621094 21.449219 -9.394531 C 21.449219 -10.683594 20.964844 -11.207031 20.078125 -11.207031 C 17.941406 -11.207031 13.992188 -5.683594 12.578125 -4.152344 L 12.5 -4.234375 C 13.304688 -5.683594 14.796875 -7.902344 14.796875 -9.675781 C 14.796875 -10.683594 14.191406 -11.207031 13.183594 -11.207031 C 12.214844 -11.207031 10.886719 -10.523438 9.03125 -8.425781 C 7.539062 -6.734375 6.652344 -5.765625 6.652344 -5.644531 C 6.652344 -5.5625 6.691406 -5.402344 6.855469 -5.402344 C 7.015625 -5.402344 7.417969 -6.089844 9.3125 -8.105469 C 10.644531 -9.515625 12.015625 -10.726562 13.144531 -10.726562 C 13.546875 -10.726562 13.75 -10.605469 13.75 -10.160156 C 13.75 -9.515625 11.492188 -6.210938 7.578125 0 L 10.199219 -0.242188 C 11.371094 -1.976562 18.183594 -10.925781 19.878906 -10.726562 C 20.238281 -10.683594 20.402344 -10.484375 20.402344 -10.121094 C 20.402344 -8.707031 15.441406 -1.492188 14.636719 0 Z M 17.175781 -0.242188 "/></g></g></g><g fill="#000000" fill-opacity="1"><g transform="translate(120.895418, 183.329189)"><g><path d="M 17.175781 -0.242188 C 18.265625 -1.894531 24.796875 -10.726562 27.09375 -10.726562 C 27.496094 -10.726562 27.617188 -10.523438 27.617188 -10.363281 C 27.617188 -8.871094 23.34375 -5.96875 23.34375 -2.582031 C 23.34375 -1.046875 23.867188 0 25.078125 0 C 26.207031 0 27.496094 -1.046875 29.511719 -3.144531 C 30.5625 -4.234375 31.8125 -5.5625 31.8125 -5.765625 C 31.8125 -5.925781 31.730469 -5.96875 31.609375 -5.96875 C 31.40625 -5.96875 31.570312 -5.925781 28.867188 -3.0625 C 27.375 -1.53125 25.925781 -0.484375 25.199219 -0.484375 C 24.753906 -0.484375 24.511719 -0.925781 24.554688 -1.371094 C 24.753906 -3.425781 28.667969 -6.53125 28.667969 -9.152344 C 28.667969 -10.605469 28.019531 -11.207031 27.253906 -11.207031 C 24.996094 -11.207031 20.964844 -5.847656 19.554688 -4.234375 L 19.472656 -4.3125 C 20.199219 -5.644531 21.449219 -7.621094 21.449219 -9.394531 C 21.449219 -10.683594 20.964844 -11.207031 20.078125 -11.207031 C 17.941406 -11.207031 13.992188 -5.683594 12.578125 -4.152344 L 12.5 -4.234375 C 13.304688 -5.683594 14.796875 -7.902344 14.796875 -9.675781 C 14.796875 -10.683594 14.191406 -11.207031 13.183594 -11.207031 C 12.214844 -11.207031 10.886719 -10.523438 9.03125 -8.425781 C 7.539062 -6.734375 6.652344 -5.765625 6.652344 -5.644531 C 6.652344 -5.5625 6.691406 -5.402344 6.855469 -5.402344 C 7.015625 -5.402344 7.417969 -6.089844 9.3125 -8.105469 C 10.644531 -9.515625 12.015625 -10.726562 13.144531 -10.726562 C 13.546875 -10.726562 13.75 -10.605469 13.75 -10.160156 C 13.75 -9.515625 11.492188 -6.210938 7.578125 0 L 10.199219 -0.242188 C 11.371094 -1.976562 18.183594 -10.925781 19.878906 -10.726562 C 20.238281 -10.683594 20.402344 -10.484375 20.402344 -10.121094 C 20.402344 -8.707031 15.441406 -1.492188 14.636719 0 Z M 17.175781 -0.242188 "/></g></g></g><g fill="#000000" fill-opacity="1"><g transform="translate(145.527991, 183.329189)"><g><path d="M 9.433594 0 C 10.964844 0 13.222656 -2.296875 14.433594 -3.507812 C 14.433594 -3.304688 14.394531 -3.0625 14.394531 -2.78125 C 14.394531 -0.566406 15.078125 0 16.167969 0 C 17.257812 0 18.789062 -1.25 20.644531 -3.183594 C 21.570312 -4.191406 22.859375 -5.644531 22.859375 -5.726562 C 22.859375 -5.804688 22.78125 -5.96875 22.617188 -5.96875 C 22.539062 -5.96875 22.496094 -5.886719 22.015625 -5.320312 C 19.675781 -2.582031 17.5 -0.484375 16.289062 -0.484375 C 15.765625 -0.484375 15.601562 -0.726562 15.601562 -1.046875 C 15.601562 -2.460938 20.28125 -9.636719 21.410156 -11.007812 L 19.472656 -10.925781 C 18.628906 -10.886719 18.707031 -10.363281 17.257812 -8.0625 L 17.175781 -8.144531 C 17.257812 -8.386719 17.296875 -8.789062 17.296875 -9.234375 C 17.296875 -10.320312 16.773438 -11.207031 15.5625 -11.207031 C 12.78125 -11.207031 9.515625 -9.152344 7.339844 -6.492188 C 6.8125 -5.847656 6.691406 -5.804688 6.691406 -5.644531 C 6.691406 -5.5625 6.773438 -5.441406 6.855469 -5.441406 C 6.933594 -5.441406 7.015625 -5.5625 7.097656 -5.5625 C 6.976562 -4.917969 6.894531 -4.3125 6.894531 -3.667969 C 6.894531 -1.855469 7.378906 0 9.433594 0 Z M 8.507812 -1.773438 C 8.507812 -4.675781 12.296875 -10.726562 15.5625 -10.726562 C 16.410156 -10.726562 16.8125 -10.078125 16.8125 -9.273438 C 16.8125 -6.289062 11.773438 -0.484375 9.433594 -0.484375 C 8.789062 -0.484375 8.507812 -1.007812 8.507812 -1.773438 Z M 8.507812 -1.773438 "/></g></g></g><g fill="#000000" fill-opacity="1"><g transform="translate(161.210591, 183.329189)"><g><path d="M 7.621094 -0.242188 C 8.75 -2.460938 16.085938 -10.726562 18.222656 -10.726562 C 18.425781 -10.726562 18.667969 -10.484375 18.667969 -10.199219 C 18.667969 -8.585938 14.234375 -5.765625 14.234375 -2.21875 C 14.234375 -0.445312 15.039062 0 15.84375 0 C 16.8125 0 18.144531 -0.445312 21.007812 -3.589844 C 22.054688 -4.71875 23.023438 -5.847656 23.023438 -5.96875 C 23.023438 -6.089844 22.941406 -6.167969 22.820312 -6.167969 C 22.617188 -6.167969 21.691406 -4.878906 20.765625 -3.953125 C 18.507812 -1.613281 17.296875 -0.484375 16.046875 -0.484375 C 15.644531 -0.484375 15.441406 -0.765625 15.441406 -1.046875 C 15.441406 -2.824219 19.878906 -6.894531 19.878906 -9.113281 C 19.878906 -10.160156 19.433594 -11.207031 18.265625 -11.207031 C 16.851562 -11.207031 13.910156 -8.667969 10.039062 -4.234375 L 9.957031 -4.3125 C 12.820312 -9.394531 20.238281 -21.570312 21.773438 -24.273438 L 19.3125 -23.988281 L 14.957031 -16.492188 C 11.371094 -10.320312 6.613281 -5.96875 6.613281 -5.5625 C 6.613281 -5.402344 6.652344 -5.320312 6.773438 -5.320312 C 6.933594 -5.320312 6.933594 -5.484375 8.667969 -7.378906 C 10.121094 -8.949219 10.683594 -9.796875 11.8125 -11.046875 L 11.855469 -10.964844 C 9.597656 -7.578125 7.339844 -3.910156 5.121094 0 Z M 7.621094 -0.242188 "/></g></g></g><g fill="#000000" fill-opacity="1"><g transform="translate(176.891982, 183.329189)"><g/></g></g><g fill="#000000" fill-opacity="1"><g transform="translate(184.713122, 183.329189)"><g/></g></g><g fill="#000000" fill-opacity="1"><g transform="translate(192.526641, 183.329189)"><g><path d="M 9.433594 0 C 10.964844 0 13.222656 -2.296875 14.433594 -3.507812 C 14.433594 -3.304688 14.394531 -3.0625 14.394531 -2.78125 C 14.394531 -0.566406 15.078125 0 16.167969 0 C 17.257812 0 18.789062 -1.25 20.644531 -3.183594 C 21.570312 -4.191406 22.859375 -5.644531 22.859375 -5.726562 C 22.859375 -5.804688 22.78125 -5.96875 22.617188 -5.96875 C 22.539062 -5.96875 22.496094 -5.886719 22.015625 -5.320312 C 19.675781 -2.582031 17.5 -0.484375 16.289062 -0.484375 C 15.765625 -0.484375 15.601562 -0.726562 15.601562 -1.046875 C 15.601562 -2.460938 20.28125 -9.636719 21.410156 -11.007812 L 19.472656 -10.925781 C 18.628906 -10.886719 18.707031 -10.363281 17.257812 -8.0625 L 17.175781 -8.144531 C 17.257812 -8.386719 17.296875 -8.789062 17.296875 -9.234375 C 17.296875 -10.320312 16.773438 -11.207031 15.5625 -11.207031 C 12.78125 -11.207031 9.515625 -9.152344 7.339844 -6.492188 C 6.8125 -5.847656 6.691406 -5.804688 6.691406 -5.644531 C 6.691406 -5.5625 6.773438 -5.441406 6.855469 -5.441406 C 6.933594 -5.441406 7.015625 -5.5625 7.097656 -5.5625 C 6.976562 -4.917969 6.894531 -4.3125 6.894531 -3.667969 C 6.894531 -1.855469 7.378906 0 9.433594 0 Z M 8.507812 -1.773438 C 8.507812 -4.675781 12.296875 -10.726562 15.5625 -10.726562 C 16.410156 -10.726562 16.8125 -10.078125 16.8125 -9.273438 C 16.8125 -6.289062 11.773438 -0.484375 9.433594 -0.484375 C 8.789062 -0.484375 8.507812 -1.007812 8.507812 -1.773438 Z M 8.507812 -1.773438 "/></g></g></g><g fill="#000000" fill-opacity="1"><g transform="translate(208.209241, 183.329189)"><g><path d="M 16.046875 -17.941406 C 13.144531 -13.507812 12.78125 -13.105469 8.992188 -8.46875 C 6.734375 -5.726562 6.613281 -5.765625 6.613281 -5.5625 C 6.613281 -5.441406 6.691406 -5.363281 6.855469 -5.363281 C 7.015625 -5.363281 10.320312 -9.515625 12.417969 -11.972656 L 12.5 -11.894531 L -1.332031 10.5625 L 1.371094 10.402344 L 4.71875 4.515625 C 10.605469 -5.804688 16.53125 -10.726562 18.0625 -10.726562 C 18.34375 -10.726562 18.585938 -10.484375 18.585938 -10.199219 C 18.585938 -8.546875 14.273438 -5.765625 14.273438 -2.582031 C 14.273438 -1.046875 14.757812 0 16.007812 0 C 17.175781 0 18.867188 -1.007812 21.609375 -4.273438 C 22.78125 -5.644531 22.859375 -5.605469 22.859375 -5.804688 C 22.859375 -5.886719 22.78125 -6.007812 22.660156 -6.007812 C 22.496094 -6.007812 22.417969 -5.765625 20.804688 -3.953125 C 18.304688 -1.128906 16.972656 -0.484375 16.128906 -0.484375 C 15.722656 -0.484375 15.480469 -0.683594 15.480469 -1.046875 C 15.480469 -3.144531 19.796875 -6.570312 19.796875 -9.113281 C 19.796875 -10.242188 19.351562 -11.207031 18.304688 -11.207031 C 15.722656 -11.207031 11.128906 -5.441406 9.636719 -3.667969 L 9.554688 -3.75 L 18.144531 -18.304688 Z M 16.046875 -17.941406 "/></g></g></g><g fill="#000000" fill-opacity="1"><g transform="translate(223.891841, 183.329189)"><g><path d="M 6.855469 -5.402344 C 7.015625 -5.402344 7.378906 -6.089844 9.835938 -8.628906 C 11.449219 -10.28125 12.417969 -10.726562 12.984375 -10.726562 C 13.386719 -10.726562 13.667969 -10.484375 13.667969 -10.160156 C 13.667969 -9.070312 11.53125 -6.570312 7.457031 0 L 10 -0.242188 C 12.054688 -2.863281 13.992188 -5.199219 16.085938 -7.136719 L 16.167969 -7.054688 C 15.644531 -6.410156 15.363281 -5.726562 15.363281 -4.796875 C 15.363281 -3.832031 16.25 -3.226562 17.136719 -3.226562 C 17.902344 -3.226562 18.789062 -3.546875 19.59375 -4.476562 C 19.957031 -4.917969 20.601562 -5.644531 20.601562 -5.765625 C 20.601562 -5.886719 20.480469 -5.96875 20.359375 -5.96875 C 20.199219 -5.96875 19.878906 -5.320312 18.988281 -4.433594 C 18.464844 -3.910156 17.820312 -3.628906 17.175781 -3.628906 C 16.449219 -3.628906 15.84375 -4.191406 15.84375 -5 C 15.84375 -7.78125 20.359375 -8.992188 20.359375 -10.5625 C 20.359375 -11.007812 20.078125 -11.207031 19.394531 -11.207031 C 17.980469 -11.207031 17.136719 -9.878906 16.730469 -8.707031 C 16.371094 -7.621094 14.394531 -6.289062 12.257812 -3.789062 L 12.175781 -3.871094 C 12.984375 -4.960938 14.714844 -7.699219 14.714844 -9.3125 C 14.714844 -10.28125 14.152344 -11.207031 13.144531 -11.207031 C 12.015625 -11.207031 10.765625 -10.242188 9.03125 -8.386719 C 8.023438 -7.257812 6.652344 -5.804688 6.652344 -5.605469 C 6.652344 -5.484375 6.734375 -5.402344 6.855469 -5.402344 Z M 6.855469 -5.402344 "/></g></g></g><g fill="#000000" fill-opacity="1"><g transform="translate(237.3168, 183.329189)"><g><path d="M 9.03125 0 C 10.160156 0 11.8125 -1.046875 13.789062 -3.105469 C 15.480469 -4.878906 16.25 -5.804688 16.25 -5.925781 C 16.25 -6.089844 16.128906 -6.128906 16.007812 -6.128906 C 15.925781 -6.128906 14.59375 -4.515625 13.546875 -3.46875 C 12.214844 -2.097656 10.363281 -0.484375 9.070312 -0.484375 C 8.707031 -0.484375 8.304688 -0.644531 8.304688 -1.332031 C 8.304688 -2.175781 9.070312 -3.226562 13.910156 -11.207031 L 11.371094 -11.046875 C 10.765625 -10.199219 8.949219 -8.347656 7.902344 -7.136719 C 6.855469 -5.925781 6.691406 -5.765625 6.691406 -5.683594 C 6.691406 -5.5625 6.734375 -5.441406 6.855469 -5.441406 C 6.976562 -5.441406 7.015625 -5.484375 7.417969 -5.96875 C 9.355469 -8.144531 10.363281 -9.191406 10.84375 -9.675781 L 10.925781 -9.597656 C 9.554688 -7.539062 7.097656 -4.796875 7.097656 -2.097656 C 7.097656 -0.886719 7.78125 0 9.03125 0 Z M 15.320312 -17.578125 C 15.320312 -16.972656 15.683594 -16.53125 16.25 -16.53125 C 17.136719 -16.53125 17.660156 -17.378906 17.660156 -18.0625 C 17.660156 -18.667969 17.296875 -19.109375 16.730469 -19.109375 C 15.84375 -19.109375 15.320312 -18.265625 15.320312 -17.578125 Z M 15.320312 -17.578125 "/></g></g></g><g fill="#000000" fill-opacity="1"><g transform="translate(246.266774, 183.329189)"><g><path d="M 19.554688 -23.988281 L 14.714844 -16.085938 C 10.886719 -9.835938 6.449219 -5.726562 6.449219 -5.402344 C 6.449219 -5.320312 6.492188 -5.199219 6.613281 -5.199219 C 6.8125 -5.199219 6.976562 -5.484375 8.507812 -7.175781 C 9.835938 -8.628906 10.484375 -9.433594 11.167969 -10.242188 L 11.25 -10.160156 C 8.46875 -5.5625 7.136719 -4.433594 7.136719 -2.015625 C 7.136719 -0.96875 7.5 0 8.871094 0 C 10.402344 0 12.296875 -1.492188 14.636719 -3.992188 C 15.199219 -4.597656 16.167969 -5.683594 16.167969 -5.804688 C 16.167969 -5.886719 16.128906 -6.007812 15.964844 -6.007812 C 15.765625 -6.007812 15.480469 -5.402344 13.667969 -3.546875 C 11.652344 -1.53125 10.242188 -0.484375 8.992188 -0.484375 C 8.628906 -0.484375 8.347656 -0.765625 8.347656 -1.007812 C 8.347656 -2.824219 11.734375 -7.742188 22.214844 -24.273438 Z M 19.554688 -23.988281 "/></g></g></g><g fill="#000000" fill-opacity="1"><g transform="translate(255.216747, 183.329189)"><g><path d="M 12.417969 -2.5 C 11.410156 -2.5 11.007812 -1.773438 11.007812 -0.886719 C 11.007812 0 11.371094 0.242188 12.015625 0.242188 C 13.144531 0.242188 13.585938 -0.402344 13.585938 -1.492188 C 13.585938 -2.136719 13.144531 -2.5 12.417969 -2.5 Z M 12.417969 -2.5 "/></g></g></g><g fill="#000000" fill-opacity="1"><g transform="translate(78.423441, 267.818262)"><g><path d="M 3.664062 0 L 3.664062 -5.496094 L 9.316406 -5.496094 L 9.316406 -7.707031 L 3.664062 -7.707031 L 3.664062 -10.957031 L 9.972656 -10.957031 L 9.972656 -13.1875 L 1.175781 -13.1875 L 1.175781 0 Z M 3.664062 0 "/></g></g></g><g fill="#000000" fill-opacity="1"><g transform="translate(94.046285, 267.818262)"><g><path d="M 2.730469 0 L 3.613281 -2.714844 L 8.640625 -2.714844 L 9.539062 0 L 12.148438 0 L 7.5 -13.1875 L 4.769531 -13.1875 L 0.121094 0 Z M 6.136719 -10.472656 L 7.949219 -4.890625 L 4.320312 -4.890625 Z M 6.136719 -10.472656 "/></g></g></g><g fill="#000000" fill-opacity="1"><g transform="translate(111.500999, 267.818262)"><g><path d="M 6.410156 0.242188 C 9.523438 0.242188 11.335938 -1.332031 11.335938 -3.820312 C 11.335938 -6.808594 8.726562 -7.398438 6.53125 -7.878906 C 4.925781 -8.242188 3.507812 -8.554688 3.507812 -9.765625 C 3.507812 -10.765625 4.40625 -11.300781 5.652344 -11.300781 C 7 -11.300781 8.121094 -10.664062 8.449219 -9.261719 L 10.992188 -9.261719 C 10.578125 -12.113281 8.242188 -13.429688 5.703125 -13.429688 C 3.042969 -13.429688 1.035156 -12.097656 1.035156 -9.558594 C 1.035156 -6.773438 3.492188 -6.238281 5.652344 -5.753906 C 7.328125 -5.390625 8.832031 -5.0625 8.832031 -3.699219 C 8.832031 -2.4375 7.792969 -1.882812 6.429688 -1.882812 C 5.046875 -1.882812 3.613281 -2.402344 3.179688 -4.285156 L 0.605469 -4.285156 C 0.933594 -0.882812 3.871094 0.242188 6.410156 0.242188 Z M 6.410156 0.242188 "/></g></g></g><g fill="#000000" fill-opacity="1"><g transform="translate(128.713766, 267.818262)"><g><path d="M 3.664062 0 L 3.664062 -5.496094 L 9.316406 -5.496094 L 9.316406 0 L 11.804688 0 L 11.804688 -13.1875 L 9.316406 -13.1875 L 9.316406 -7.726562 L 3.664062 -7.726562 L 3.664062 -13.1875 L 1.175781 -13.1875 L 1.175781 0 Z M 3.664062 0 "/></g></g></g><g fill="#000000" fill-opacity="1"><g transform="translate(146.894329, 267.818262)"><g><path d="M 3.664062 0 L 3.664062 -13.1875 L 1.175781 -13.1875 L 1.175781 0 Z M 3.664062 0 "/></g></g></g><g fill="#000000" fill-opacity="1"><g transform="translate(156.917864, 267.818262)"><g><path d="M 7.066406 0.242188 C 11.441406 0.242188 13.480469 -2.957031 13.480469 -6.601562 C 13.480469 -10.25 11.441406 -13.429688 7.066406 -13.429688 C 2.714844 -13.429688 0.675781 -10.25 0.675781 -6.601562 C 0.675781 -2.957031 2.714844 0.242188 7.066406 0.242188 Z M 7.066406 -1.988281 C 4.667969 -1.988281 3.265625 -3.855469 3.265625 -6.601562 C 3.265625 -9.332031 4.667969 -11.179688 7.066406 -11.179688 C 9.503906 -11.179688 10.886719 -9.332031 10.886719 -6.601562 C 10.886719 -3.855469 9.503906 -1.988281 7.066406 -1.988281 Z M 7.066406 -1.988281 "/></g></g></g><g fill="#000000" fill-opacity="1"><g transform="translate(176.273579, 267.818262)"><g><path d="M 3.664062 0 L 3.664062 -9.453125 L 9.054688 0 L 11.871094 0 L 11.871094 -13.1875 L 9.382812 -13.1875 L 9.382812 -3.75 L 3.976562 -13.1875 L 1.175781 -13.1875 L 1.175781 0 Z M 3.664062 0 "/></g></g></g><g fill="#000000" fill-opacity="1"><g transform="translate(194.505978, 267.818262)"><g/></g></g><g fill="#000000" fill-opacity="1"><g transform="translate(204.322139, 267.818262)"><g><path d="M 3.664062 0 L 3.664062 -5.496094 L 9.316406 -5.496094 L 9.316406 0 L 11.804688 0 L 11.804688 -13.1875 L 9.316406 -13.1875 L 9.316406 -7.726562 L 3.664062 -7.726562 L 3.664062 -13.1875 L 1.175781 -13.1875 L 1.175781 0 Z M 3.664062 0 "/></g></g></g><g fill="#000000" fill-opacity="1"><g transform="translate(222.502702, 267.818262)"><g><path d="M 7.066406 0.242188 C 11.441406 0.242188 13.480469 -2.957031 13.480469 -6.601562 C 13.480469 -10.25 11.441406 -13.429688 7.066406 -13.429688 C 2.714844 -13.429688 0.675781 -10.25 0.675781 -6.601562 C 0.675781 -2.957031 2.714844 0.242188 7.066406 0.242188 Z M 7.066406 -1.988281 C 4.667969 -1.988281 3.265625 -3.855469 3.265625 -6.601562 C 3.265625 -9.332031 4.667969 -11.179688 7.066406 -11.179688 C 9.503906 -11.179688 10.886719 -9.332031 10.886719 -6.601562 C 10.886719 -3.855469 9.503906 -1.988281 7.066406 -1.988281 Z M 7.066406 -1.988281 "/></g></g></g><g fill="#000000" fill-opacity="1"><g transform="translate(241.858417, 267.818262)"><g><path d="M 6.359375 0.242188 C 10.128906 0.242188 11.683594 -1.796875 11.683594 -4.785156 L 11.683594 -13.1875 L 9.175781 -13.1875 L 9.175781 -4.785156 C 9.175781 -3.144531 8.484375 -1.988281 6.359375 -1.988281 C 4.234375 -1.988281 3.542969 -3.144531 3.542969 -4.785156 L 3.542969 -13.1875 L 1.035156 -13.1875 L 1.035156 -4.785156 C 1.035156 -1.796875 2.574219 0.242188 6.359375 0.242188 Z M 6.359375 0.242188 "/></g></g></g><g fill="#000000" fill-opacity="1"><g transform="translate(259.779749, 267.818262)"><g><path d="M 6.410156 0.242188 C 9.523438 0.242188 11.335938 -1.332031 11.335938 -3.820312 C 11.335938 -6.808594 8.726562 -7.398438 6.53125 -7.878906 C 4.925781 -8.242188 3.507812 -8.554688 3.507812 -9.765625 C 3.507812 -10.765625 4.40625 -11.300781 5.652344 -11.300781 C 7 -11.300781 8.121094 -10.664062 8.449219 -9.261719 L 10.992188 -9.261719 C 10.578125 -12.113281 8.242188 -13.429688 5.703125 -13.429688 C 3.042969 -13.429688 1.035156 -12.097656 1.035156 -9.558594 C 1.035156 -6.773438 3.492188 -6.238281 5.652344 -5.753906 C 7.328125 -5.390625 8.832031 -5.0625 8.832031 -3.699219 C 8.832031 -2.4375 7.792969 -1.882812 6.429688 -1.882812 C 5.046875 -1.882812 3.613281 -2.402344 3.179688 -4.285156 L 0.605469 -4.285156 C 0.933594 -0.882812 3.871094 0.242188 6.410156 0.242188 Z M 6.410156 0.242188 "/></g></g></g><g fill="#000000" fill-opacity="1"><g transform="translate(276.99252, 267.818262)"><g><path d="M 9.972656 0 L 9.972656 -2.230469 L 3.664062 -2.230469 L 3.664062 -5.496094 L 9.316406 -5.496094 L 9.316406 -7.707031 L 3.664062 -7.707031 L 3.664062 -10.957031 L 9.972656 -10.957031 L 9.972656 -13.1875 L 1.175781 -13.1875 L 1.175781 0 Z M 9.972656 0 "/></g></g></g></svg>